# xmcd
#
# Track frame offsets:
#  150
#  11003
#  23103
#  33844
#  46167
#  60192
#  78957
#  91717
#  108981
#  123269
#  137150
#  149556
#  157597
#  169856
#
# Disc length: 2609 seconds
#
# Revision: 0
# Processed by: cddbd v1.5.1PL2 Copyright (c) Steve Scherf et al.
# Submitted via: Collectorz.com_Music_Collector 6.11
#
DISCID=9e0a2f0e
DTITLE=Bluegrass Parkway - Not before time!
DYEAR=1900
DGENRE=Country
TTITLE0=L. Cordle - Highway 40 Blues
TTITLE1=Unknown/Public Domain - Nobody's Love
TTITLE2=Gillian Welsh - Witchita
TTITLE3=Bill Emmerson - Breakin' It Down
TTITLE4=Sidney Cox - I've Got That Old Feeling
TTITLE5=Bill Monroe - Sunset Trail
TTITLE6=Jimmy Martin - Tennessee
TTITLE7=A. P. Carter - Will You Miss Me
TTITLE8=Tony Hazard - Fox On The Run
TTITLE9=Bill Monroe - Wicked Path Of Sin
TTITLE10=Ralph Stanley - Clinch Mountain Backstep
TTITLE11=C. Jackson/M. Stuart - If You Ever Change Your Mind
TTITLE12=Traditional/Public Domain - River Of Jordan
TTITLE13=Peter Rowan - Dancin' With The Angels
EXTD=
EXTT0=
EXTT1=
EXTT2=
EXTT3=
EXTT4=
EXTT5=
EXTT6=
EXTT7=
EXTT8=
EXTT9=
EXTT10=
EXTT11=
EXTT12=
EXTT13=
PLAYORDER=
